<?xml version="1.0" encoding="iso-8859-1"?>
<!-- Generator: Adobe Illustrator 19.0.0, SVG Export Plug-In . SVG Version: 6.00 Build 0)  -->
<svg version="1.1" id="Capa_1" xmlns="http://www.w3.org/2000/svg" xmlns:xlink="http://www.w3.org/1999/xlink" x="0px" y="0px"
	 viewBox="0 0 512.001 512.001" style="enable-background:new 0 0 512.001 512.001;" xml:space="preserve">
<g>
	<rect x="131.43" y="10" style="fill:#5F4A3E;" width="249.14" height="35.994"/>
	<path style="fill:#FD4A4A;" d="M131.431,45.994H380.57c20.253,0,36.823,16.57,36.823,36.823v155.939
		c0,20.253-61.438,97.118-126.966,136.827v89.163H256h-34.427v-89.163C156.045,335.875,94.608,259.01,94.608,238.757V82.817
		C94.608,62.564,111.178,45.994,131.431,45.994z"/>
	<path style="fill:#F0F2F4;" d="M256,253.469c42.971,0,78.018-35.047,78.018-78.018S298.971,97.433,256,97.433
		s-78.018,35.047-78.018,78.018S213.03,253.469,256,253.469z"/>
	<rect x="221.57" y="432.46" style="fill:#5F4A3E;" width="68.854" height="32.29"/>
</g>
<path d="M298.184,197.166l-13.363-10.979c-4.265-3.506-10.568-2.89-14.074,1.379c-3.506,4.267-2.889,10.568,1.379,14.074
	l13.363,10.979c1.86,1.529,4.107,2.273,6.342,2.273c2.889,0,5.756-1.246,7.732-3.652
	C303.069,206.973,302.452,200.672,298.184,197.166z"/>
<path d="M262.349,167.726l-0.367-0.302c-4.265-3.507-10.568-2.89-14.074,1.376c-3.507,4.267-2.89,10.568,1.377,14.075l0.367,0.302
	c1.861,1.53,4.109,2.274,6.343,2.274c2.889,0,5.755-1.245,7.732-3.651C267.233,177.533,266.617,171.232,262.349,167.726z"/>
<path d="M221.1,164.683c4.753-15.405,18.779-25.756,34.9-25.756c20.139,0,36.523,16.385,36.523,36.524
	c0,0.577-0.014,1.154-0.041,1.73c-0.264,5.517,3.994,10.203,9.511,10.466c0.163,0.008,0.324,0.012,0.485,0.012
	c5.304-0.001,9.725-4.169,9.98-9.523c0.043-0.894,0.064-1.79,0.064-2.685c0-31.168-25.356-56.524-56.523-56.524
	c-24.95,0-46.655,16.018-54.012,39.859c-1.628,5.277,1.33,10.875,6.607,12.504C213.869,172.915,219.471,169.96,221.1,164.683z"/>
<path d="M202.428,35.994h-0.475c-5.523,0-10,4.477-10,10s4.477,10,10,10h0.475c5.523,0,10-4.477,10-10
	S207.951,35.994,202.428,35.994z"/>
<path d="M374.131,165.451h-0.475c-5.522,0-10,4.477-10,10s4.478,10,10,10h0.475c5.522,0,10-4.477,10-10
	C384.131,169.928,379.654,165.451,374.131,165.451z"/>
<path d="M444.654,165.451h-17.261V82.817c0-22.386-15.795-41.143-36.823-45.737V10c0-5.523-4.478-10-10-10H131.431
	c-5.523,0-10,4.477-10,10v27.08c-21.028,4.595-36.823,23.351-36.823,45.737v82.634H67.347c-5.523,0-10,4.477-10,10s4.477,10,10,10
	h17.261v53.306c0,10.96,9.906,27.433,20.62,42.049c-0.469,1.159-0.733,2.422-0.733,3.75l0,0c0,0.011,0,0.001,0,0.011v217.434
	c0,5.523,4.477,10,10,10s10-4.477,10-10V386.672l49.138-33.628c12.693,10.683,25.535,20.22,37.941,28.102v41.274l-9.181,0.042
	c-5.523,0.025-9.98,4.522-9.955,10.045c0.025,5.507,4.497,9.955,9.999,9.955c0.015,0,0.031,0,0.046,0l9.09-0.041v22.326
	c0,5.523,4.477,10,10,10h68.854c5.522,0,10-4.477,10-10v-22.728l9.181-0.041c5.523-0.025,9.98-4.523,9.955-10.046
	c-0.025-5.507-4.497-9.954-9.999-9.954c-0.016,0-0.031,0-0.046,0l-9.091,0.041v-40.044c0.387-0.464,0.727-0.967,1.026-1.497
	c12.089-7.753,24.57-17.044,36.915-27.434l49.137,33.628v115.329c0,5.523,4.478,10,10,10s10-4.477,10-10V284.556
	c0-0.014,0,0.014,0,0l0,0c0-1.327-0.265-2.59-0.733-3.749c10.715-14.617,20.621-31.09,20.621-42.05v-53.306h17.261
	c5.522,0,10-4.477,10-10C454.654,169.928,450.176,165.451,444.654,165.451z M336.893,327.799l-48.575-33.243h81.513
	C359.445,306.238,348.305,317.46,336.893,327.799z M142.17,294.556h81.512l-48.574,33.243
	C163.696,317.46,152.556,306.238,142.17,294.556z M124.495,362.437V304.75c0.528,0.605,1.041,1.192,1.522,1.738
	c10.127,11.486,20.989,22.565,32.159,32.899L124.495,362.437z M280.427,454.747h-48.854V442.33l48.854-0.221V454.747z
	 M287.6,365.584h-15.582c-5.522,0-10,4.477-10,10s4.478,10,10,10h8.409v36.525l-48.854,0.221v-46.746
	c0-3.497-1.827-6.74-4.817-8.552c-11.666-7.069-23.844-15.809-35.971-25.727L256,296.673l65.215,44.631
	C309.902,350.558,298.544,358.782,287.6,365.584z M387.505,362.437l-33.681-23.05c11.17-10.333,22.032-21.414,32.159-32.899
	c0.48-0.545,0.994-1.132,1.522-1.737V362.437z M407.393,238.757c0,3.226-5.577,15.777-20.951,35.799h0.017c-0.016,0,0,0-0.017,0l0,0
	l0,0c-0.017,0,0.017,0,0,0H125.559c-15.374-20.022-20.951-32.573-20.951-35.799v-53.306h63.946
	c4.982,43.841,42.294,78.018,87.446,78.018c48.533,0,88.018-39.484,88.018-88.018S304.534,87.433,256,87.433
	c-45.152,0-82.465,34.177-87.446,78.018h-63.946V82.817c0-14.79,12.033-26.823,26.823-26.823h41.438l0,0c5.523,0,10-4.477,10-10
	s-4.477-10-10-10l0,0h-31.438V20H370.57v15.994l0,0H254.146l0,0c-5.523,0-10,4.477-10,10s4.477,10,10,10l0,0H380.57l0,0
	c14.79,0,26.823,12.033,26.823,26.823v82.634h-4.178c-5.522,0-10,4.477-10,10s4.478,10,10,10h4.178V238.757z M187.983,175.451
	c0-37.505,30.513-68.018,68.018-68.018s68.018,30.513,68.018,68.018s-30.513,68.018-68.018,68.018S187.983,212.956,187.983,175.451z
	"/>
<g>
</g>
<g>
</g>
<g>
</g>
<g>
</g>
<g>
</g>
<g>
</g>
<g>
</g>
<g>
</g>
<g>
</g>
<g>
</g>
<g>
</g>
<g>
</g>
<g>
</g>
<g>
</g>
<g>
</g>
</svg>
