<svg id="logo" xmlns="http://www.w3.org/2000/svg" viewBox="0 0 86.41 72.15"><defs><style>.cls-1{font-size:16.78px;font-family:RobotoSlab-Bold, Roboto Slab;font-weight:700;}.cls-2,.cls-4,.cls-5,.cls-6{stroke:#000;stroke-miterlimit:10;}.cls-2,.cls-4{stroke-width:1.68px;}.cls-3{font-size:10.49px;font-family:Lobster-Regular, Lobster;}.cls-4,.cls-5,.cls-6{fill:none;}.cls-5{stroke-width:1.23px;}.cls-6{stroke-width:1.22px;}</style></defs><title>лого_пивоварня</title><text class="cls-1" transform="translate(16.6 41.5)">НАШЕ</text><line class="cls-2" y1="47.74" x2="86.41" y2="47.74"/><line class="cls-2" y1="23.18" x2="86.41" y2="23.18"/><text class="cls-3" transform="translate(33.52 61.29)">пиво</text><path class="cls-4" d="M13.5,29.07a35.24,35.24,0,0,1,62.59,0" transform="translate(-1.59 -9.19)"/><path class="cls-4" d="M12.78,60a35.25,35.25,0,0,0,64,0" transform="translate(-1.59 -9.19)"/><path class="cls-5" d="M55.39,26.07h3.07A2.94,2.94,0,0,1,61.53,29h0" transform="translate(-1.59 -9.19)"/><rect class="cls-6" x="33.23" y="11.51" width="20.11" height="5.37"/><path class="cls-5" d="M54.93,20.7a5.25,5.25,0,0,0-5.53-4.61,6.62,6.62,0,0,0-4.19,1.5c-.79-2.13-2.77-2.88-5.17-2.88-3.1,0-5.22,1.82-5.22,4.91a4.87,4.87,0,0,0,0,1.08" transform="translate(-1.59 -9.19)"/><polyline class="cls-5" points="33.15 19.8 33.15 11.51 53.26 11.51 53.26 19.8"/></svg>