<?xml version="1.0" encoding="iso-8859-1"?>
<!-- Generator: Adobe Illustrator 19.0.0, SVG Export Plug-In . SVG Version: 6.00 Build 0)  -->
<svg version="1.1" id="Capa_1" xmlns="http://www.w3.org/2000/svg" xmlns:xlink="http://www.w3.org/1999/xlink" x="0px" y="0px"
	 viewBox="0 0 512.002 512.002" style="enable-background:new 0 0 512.002 512.002;" xml:space="preserve">
<g>
	<rect x="59.42" y="357.19" style="fill:#F0F2F4;" width="393.16" height="98.85"/>
	<g>
		<path style="fill:#636A75;" d="M59.423,456.038c27.222,0,49.423-22.202,49.423-49.423c0-27.222-22.201-49.423-49.423-49.423
			C32.202,357.192,10,379.393,10,406.615C10,433.836,32.202,456.038,59.423,456.038z"/>
		<path style="fill:#636A75;" d="M452.579,456.038c27.222,0,49.423-22.202,49.423-49.423c0-27.222-22.201-49.423-49.423-49.423
			c-27.221,0-49.423,22.201-49.423,49.423C403.156,433.836,425.358,456.038,452.579,456.038z"/>
	</g>
	<path style="fill:#FFCE34;" d="M93.838,75.856h29.839v62.354l38.086,54.808v49.752v93.501v8.073
		c0,7.066-5.781,12.848-12.848,12.848H68.6c-7.066,0-12.848-5.781-12.848-12.848v-8.073V242.77v-49.752l38.086-54.808V75.856z"/>
	<path style="fill:#F0F2F4;" d="M108.757,306.168c15.093,0,27.403-23.389,27.403-52.064c0-28.677-12.311-52.065-27.403-52.065
		c-15.093,0-27.402,23.389-27.402,52.065C81.354,282.78,93.664,306.168,108.757,306.168z"/>
	<path style="fill:#FFCE34;" d="M388.325,75.856h29.839v62.354l38.086,54.808v49.752v93.501v8.073
		c0,7.066-5.781,12.848-12.848,12.848h-80.315c-7.067,0-12.849-5.781-12.849-12.848v-8.073V242.77v-49.752l38.086-54.808V75.856
		H388.325z"/>
	<path style="fill:#F0F2F4;" d="M403.244,306.168c15.094,0,27.403-23.389,27.403-52.064c0-28.677-12.31-52.065-27.403-52.065
		c-15.092,0-27.402,23.389-27.402,52.065C375.842,282.78,388.152,306.168,403.244,306.168z"/>
	<path style="fill:#FFCE34;" d="M242.238,75.856h29.838v62.354l38.086,54.808v49.752v93.501v8.073
		c0,7.066-5.781,12.848-12.848,12.848H217c-7.066,0-12.848-5.781-12.848-12.848v-8.073V242.77v-49.752l38.086-54.808V75.856z"/>
	<path style="fill:#F0F2F4;" d="M257.157,306.168c15.093,0,27.402-23.389,27.402-52.064c0-28.677-12.31-52.065-27.402-52.065
		c-15.093,0-27.402,23.389-27.402,52.065S242.064,306.168,257.157,306.168z"/>
</g>
<path d="M465.829,348.7c0.273-1.411,0.421-2.866,0.421-4.355v-8.073v-20.538c0-5.523-4.478-10-10-10s-10,4.477-10,10v20.538v8.073
	c0,1.543-1.305,2.848-2.849,2.848h-80.315c-1.544,0-2.848-1.304-2.848-2.848V196.151l36.298-52.234
	c1.164-1.675,1.788-3.667,1.788-5.707V85.856h9.839v52.354c0,2.04,0.624,4.031,1.788,5.707l36.299,52.234v25.477v12.827
	c0,5.523,4.478,10,10,10s10-4.477,10-10v-12.827v-28.61c0-0.304-0.018-0.607-0.046-0.908c-0.01-0.104-0.022-0.205-0.035-0.308
	c-0.024-0.197-0.054-0.392-0.09-0.587c-0.022-0.115-0.041-0.23-0.066-0.344c-0.044-0.201-0.097-0.399-0.153-0.596
	c-0.041-0.146-0.085-0.289-0.133-0.432c-0.067-0.202-0.14-0.403-0.22-0.601c-0.049-0.118-0.103-0.233-0.155-0.35
	c-0.069-0.154-0.142-0.307-0.22-0.457c-0.058-0.111-0.115-0.221-0.178-0.33c-0.092-0.164-0.191-0.325-0.293-0.483
	c-0.055-0.085-0.105-0.171-0.162-0.254c-0.014-0.019-0.024-0.039-0.037-0.057l-36.299-52.234V85.856h4.173c5.522,0,10-4.477,10-10
	c0-5.172-3.927-9.426-8.961-9.946c5.034-0.52,8.961-4.774,8.961-9.946c0-5.523-4.478-10-10-10h-58.184c-5.522,0-10,4.477-10,10
	c0,5.172,3.927,9.426,8.961,9.946c-5.034,0.52-8.961,4.774-8.961,9.946c0,5.523,4.478,10,10,10h4.172v49.221l-36.298,52.234
	c-1.164,1.675-1.788,3.667-1.788,5.707v151.326c0,0.965,0.067,1.914,0.184,2.848h-20.443c0.116-0.934,0.184-1.883,0.184-2.848
	V193.018c0-2.04-0.624-4.031-1.788-5.707l-36.298-52.234V85.856h4.174c5.522,0,10-4.477,10-10c0-5.172-3.927-9.426-8.961-9.946
	c5.034-0.52,8.961-4.774,8.961-9.946c0-5.523-4.478-10-10-10h-58.184c-5.523,0-10,4.477-10,10c0,5.172,3.927,9.426,8.961,9.946
	c-5.034,0.52-8.961,4.774-8.961,9.946c0,5.523,4.477,10,10,10h4.173v49.221l-36.298,52.234c-0.013,0.019-0.023,0.039-0.037,0.057
	c-0.057,0.083-0.107,0.169-0.162,0.254c-0.102,0.159-0.201,0.319-0.293,0.483c-0.063,0.109-0.12,0.219-0.178,0.33
	c-0.078,0.15-0.15,0.302-0.22,0.455c-0.053,0.116-0.106,0.232-0.155,0.351c-0.081,0.198-0.152,0.398-0.22,0.601
	c-0.048,0.143-0.092,0.286-0.133,0.432c-0.057,0.197-0.109,0.395-0.153,0.596c-0.025,0.114-0.046,0.23-0.066,0.345
	c-0.036,0.194-0.066,0.389-0.09,0.585c-0.012,0.103-0.025,0.205-0.035,0.309c-0.027,0.301-0.046,0.604-0.046,0.908v28.61v81.277
	v41.439c0,0.965,0.067,1.914,0.184,2.848h-22.757c0.116-0.934,0.184-1.883,0.184-2.848V193.018c0-2.04-0.624-4.031-1.788-5.707
	l-36.298-52.234V85.856h4.173c5.523,0,10-4.477,10-10c0-5.172-3.927-9.426-8.961-9.946c5.034-0.52,8.961-4.774,8.961-9.946
	c0-5.523-4.477-10-10-10H79.666c-5.522,0-10,4.477-10,10c0,5.172,3.927,9.426,8.961,9.946c-5.034,0.52-8.961,4.774-8.961,9.946
	c0,5.523,4.478,10,10,10h4.172v49.221L47.54,187.311c-0.013,0.019-0.023,0.039-0.037,0.057c-0.057,0.083-0.107,0.169-0.162,0.254
	c-0.102,0.159-0.201,0.319-0.293,0.483c-0.063,0.109-0.12,0.219-0.178,0.33c-0.078,0.15-0.15,0.302-0.22,0.455
	c-0.053,0.116-0.106,0.232-0.155,0.351c-0.081,0.198-0.152,0.398-0.22,0.601c-0.048,0.143-0.092,0.286-0.133,0.432
	c-0.057,0.197-0.109,0.395-0.153,0.596c-0.025,0.114-0.046,0.23-0.066,0.345c-0.036,0.194-0.066,0.389-0.09,0.585
	c-0.012,0.103-0.025,0.205-0.035,0.309c-0.027,0.301-0.046,0.604-0.046,0.908v28.61c0,5.523,4.478,10,10,10s10-4.477,10-10V196.15
	l36.298-52.234c1.164-1.675,1.788-3.667,1.788-5.707V85.856h9.839v52.354c0,2.04,0.624,4.031,1.788,5.707l36.298,52.234v148.193
	c0,1.543-1.304,2.848-2.848,2.848H68.6c-1.544,0-2.848-1.304-2.848-2.848v-41.439c0-5.523-4.478-10-10-10s-10,4.477-10,10v41.439
	c0,1.49,0.147,2.944,0.421,4.355C19.767,354.739,0,378.404,0,406.615c0,32.766,26.657,59.423,59.423,59.423h393.156
	c32.766,0,59.423-26.657,59.423-59.423C512.002,378.404,492.235,354.739,465.829,348.7z M250.45,143.917
	c1.164-1.675,1.788-3.667,1.788-5.707V85.856h9.838v52.354c0,2.04,0.624,4.031,1.788,5.707l36.298,52.234v148.193
	c0,1.543-1.304,2.848-2.848,2.848H217c-1.544,0-2.848-1.304-2.848-2.848v-41.439v-81.277v-25.477L250.45,143.917z M408.169,367.192
	c-9.33,10.499-15.013,24.306-15.013,39.423s5.683,28.924,15.013,39.423H103.833c9.33-10.499,15.013-24.306,15.013-39.423
	s-5.683-28.924-15.013-39.423H408.169 M20,406.615c0-21.738,17.685-39.423,39.423-39.423s39.423,17.685,39.423,39.423
	s-17.685,39.423-39.423,39.423S20,428.353,20,406.615z M452.579,446.038c-21.738,0-39.423-17.685-39.423-39.423
	s17.684-39.423,39.423-39.423s39.423,17.685,39.423,39.423S474.317,446.038,452.579,446.038z"/>
<path d="M79.423,406.615c0-11.016-8.984-20-20-20s-20,8.984-20,20c0,11.015,8.984,19.999,20,19.999S79.423,417.629,79.423,406.615z"
	/>
<path d="M452.579,386.615c-11.015,0-19.999,8.984-19.999,20c0,11.015,8.984,19.999,19.999,19.999c11.016,0,20-8.984,20-19.999
	C472.579,395.599,463.595,386.615,452.579,386.615z"/>
<path d="M221.658,416.615h70.998c5.522,0,10-4.477,10-10s-4.478-10-10-10h-70.998c-5.522,0-10,4.477-10,10
	S216.136,416.615,221.658,416.615z"/>
<path d="M146.16,254.104c0-35.383-16.08-62.065-37.403-62.065s-37.402,26.682-37.402,62.065s16.079,62.064,37.402,62.064
	S146.16,289.487,146.16,254.104z M91.354,254.104c0-25.288,10.475-42.065,17.402-42.065c6.929,0,17.403,16.777,17.403,42.065
	s-10.475,42.064-17.403,42.064C101.829,296.168,91.354,279.392,91.354,254.104z"/>
<path d="M55.752,261.188c5.522,0,10-4.477,10-10v-0.475c0-5.523-4.478-10-10-10s-10,4.477-10,10v0.475
	C45.752,256.711,50.229,261.188,55.752,261.188z"/>
<path d="M257.157,316.168c21.323,0,37.402-26.682,37.402-62.064c0-35.383-16.079-62.065-37.402-62.065s-37.402,26.682-37.402,62.065
	S235.834,316.168,257.157,316.168z M257.157,212.039c6.928,0,17.402,16.777,17.402,42.065s-10.475,42.064-17.402,42.064
	c-6.928,0-17.402-16.777-17.402-42.064C239.755,228.816,250.23,212.039,257.157,212.039z"/>
<path d="M365.842,254.104c0,35.383,16.079,62.064,37.402,62.064s37.402-26.682,37.402-62.064c0-35.383-16.079-62.065-37.402-62.065
	C381.921,192.039,365.842,218.721,365.842,254.104z M420.647,254.104c0,25.288-10.475,42.064-17.402,42.064
	c-6.928,0-17.402-16.777-17.402-42.064c0-25.288,10.475-42.065,17.402-42.065S420.647,228.816,420.647,254.104z"/>
<path d="M456.25,276.174c-5.522,0-10,4.477-10,10v0.475c0,5.523,4.478,10,10,10s10-4.477,10-10v-0.475
	C466.25,280.651,461.772,276.174,456.25,276.174z"/>
<g>
</g>
<g>
</g>
<g>
</g>
<g>
</g>
<g>
</g>
<g>
</g>
<g>
</g>
<g>
</g>
<g>
</g>
<g>
</g>
<g>
</g>
<g>
</g>
<g>
</g>
<g>
</g>
<g>
</g>
</svg>
