<?xml version="1.0" encoding="iso-8859-1"?>
<!-- Generator: Adobe Illustrator 19.0.0, SVG Export Plug-In . SVG Version: 6.00 Build 0)  -->
<svg version="1.1" id="Capa_1" xmlns="http://www.w3.org/2000/svg" xmlns:xlink="http://www.w3.org/1999/xlink" x="0px" y="0px"
	 viewBox="0 0 512 512" style="enable-background:new 0 0 512 512;" xml:space="preserve">
<path style="fill:#FF3501;" d="M91.68,0C41.62,0,0.894,40.726,0.894,90.786c0,19.45,6.063,37.992,17.536,53.641l18.02,26.754
	l55.23,84.587l55.23-84.587l18.02-26.754c11.475-15.65,17.536-34.192,17.536-53.641C182.465,40.726,141.738,0,91.68,0z"/>
<path style="fill:#CD2A00;" d="M91.68,255.769l55.23-84.587l18.02-26.754c11.475-15.65,17.536-34.192,17.536-53.641
	C182.465,40.726,141.738,0,91.68,0V255.769z"/>
<path style="fill:#2488FF;" d="M455.263,407.121v29.402c0,24.989-20.331,45.32-45.32,45.32H136.687
	c-24.989,0-45.319-20.331-45.319-45.32c0-24.988,20.33-45.319,45.319-45.319h152.392c41.747,0,75.712-33.708,75.712-75.141
	s-33.965-75.141-75.712-75.141H136.351v30.157h152.728c25.119,0,45.555,20.18,45.555,44.984s-20.436,44.984-45.555,44.984H136.351
	v0.008c-41.464,0.183-75.141,33.962-75.141,75.468c0,41.618,33.858,75.477,75.476,75.477h273.256
	c41.618,0,75.477-33.859,75.477-75.477v-29.402H455.263z"/>
<polygon style="fill:#FFDA44;" points="511.106,296.522 489.782,275.198 470.288,294.692 450.792,275.198 429.468,296.522 
	448.964,316.016 429.468,335.512 450.792,356.836 470.288,337.34 489.782,356.836 511.106,335.512 491.612,316.016 "/>
<polygon style="fill:#FFCD00;" points="470.288,337.34 489.782,356.836 511.106,335.512 491.612,316.016 511.106,296.522 
	489.782,275.198 470.288,294.692 "/>
<rect x="76.961" y="75.393" style="fill:#FFFFFF;" width="30.157" height="30.157"/>
<g>
</g>
<g>
</g>
<g>
</g>
<g>
</g>
<g>
</g>
<g>
</g>
<g>
</g>
<g>
</g>
<g>
</g>
<g>
</g>
<g>
</g>
<g>
</g>
<g>
</g>
<g>
</g>
<g>
</g>
</svg>
