<?xml version="1.0" encoding="iso-8859-1"?>
<!-- Generator: Adobe Illustrator 19.0.0, SVG Export Plug-In . SVG Version: 6.00 Build 0)  -->
<svg version="1.1" id="Capa_1" xmlns="http://www.w3.org/2000/svg" xmlns:xlink="http://www.w3.org/1999/xlink" x="0px" y="0px"
	 viewBox="0 0 512 512" style="enable-background:new 0 0 512 512;" xml:space="preserve">
<g>
	
		<rect x="292.041" y="214.821" transform="matrix(0.981 -0.1941 0.1941 0.981 -56.561 78.0098)" style="fill:#FFCE34;" width="155.539" height="225.638"/>
	<path style="fill:#F0F2F4;" d="M330.627,220.395l0.892-0.178l92.685-18.34l-11.006-55.611c-4.035-20.39-24.019-33.772-44.41-29.737
		l-18.536,3.668c-20.391,4.035-33.772,24.021-29.737,44.411l-32.083,6.35c-15.293,3.025-25.329,18.016-22.303,33.308l4.55,22.991
		l0.952,4.813l3.703,18.716l58.998-11.676L330.627,220.395z"/>
	
		<rect x="276.345" y="216.362" transform="matrix(0.981 -0.1941 0.1941 0.981 -41.4677 73.4553)" style="fill:#FFE293;" width="155.539" height="63.958"/>
	
		<rect x="310.965" y="407.744" transform="matrix(0.981 -0.1941 0.1941 0.981 -74.7435 83.4988)" style="fill:#FF9750;" width="155.529" height="30.857"/>
	
		<rect x="64.431" y="175.298" transform="matrix(-0.981 -0.1941 0.1941 -0.981 225.7747 598.3553)" style="fill:#FFCE34;" width="155.539" height="225.638"/>
	<path style="fill:#F0F2F4;" d="M181.371,180.861l-0.892-0.176l-92.684-18.341l11.006-55.609
		c4.035-20.392,24.019-33.772,44.409-29.737l18.537,3.668c20.391,4.035,33.772,24.019,29.737,44.409l32.083,6.35
		c15.293,3.025,25.329,18.016,22.303,33.308l-4.55,22.993l-0.952,4.813l-3.703,18.714l-58.998-11.674L181.371,180.861z"/>
	
		<rect x="80.114" y="176.836" transform="matrix(-0.981 -0.1941 0.1941 -0.981 272.2341 444.303)" style="fill:#FFE293;" width="155.539" height="63.958"/>
	
		<rect x="45.519" y="368.226" transform="matrix(-0.981 -0.1941 0.1941 -0.981 169.7663 783.9429)" style="fill:#FF9750;" width="155.539" height="30.857"/>
</g>
<path d="M511.372,357.088l-16.022-80.963c-3.499-17.683-20.728-29.223-38.414-25.723l-12.45,2.464l-21.479-108.542
	c0-0.003,0.001,0.004,0,0l0,0c-5.116-25.851-30.309-42.72-56.16-37.605l-18.537,3.668c-12.482,2.47-23.277,9.686-30.396,20.317
	c-5.217,7.791-7.986,16.71-8.121,25.83l-23.303,4.612c-10.017,1.981-18.678,7.771-24.389,16.3s-7.765,18.742-5.783,28.759l0,0
	l49.302,249.145c0.943,4.763,5.122,8.061,9.799,8.061c0.644,0,1.297-0.063,1.952-0.192l152.574-30.19
	c2.602-0.515,4.893-2.042,6.368-4.245c1.476-2.204,2.016-4.904,1.501-7.506l-4.613-23.313l12.449-2.463
	c8.543-1.69,15.928-6.624,20.796-13.896C511.312,374.337,513.062,365.629,511.372,357.088z M295.796,302.677l132.954-26.308
	l21.512,108.712l-132.954,26.31L295.796,302.677z M278.719,188.575c2.739-4.091,6.878-6.863,11.654-7.809l22.272-4.408l2.15,10.866
	c0.942,4.763,5.121,8.061,9.799,8.061c0.643,0,1.296-0.063,1.952-0.192c5.418-1.071,8.941-6.333,7.869-11.751l-4.091-20.675
	c-1.433-7.241,0.061-14.641,4.208-20.833s10.419-10.394,17.661-11.827l18.538-3.668c15.032-2.969,29.684,6.836,32.659,21.869
	l9.064,45.802l-21.304,4.216c-5.418,1.071-8.941,6.333-7.869,11.75c0.942,4.763,5.121,8.062,9.799,8.062
	c0.644,0,1.296-0.063,1.952-0.192l21.304-4.216l8.534,43.123L291.913,283.06l-8.533-43.12l32.981-6.527
	c5.417-1.072,8.94-6.333,7.868-11.751c-1.072-5.418-6.333-8.942-11.751-7.868l-32.98,6.527l-3.562-17.996
	C274.992,197.547,275.98,192.665,278.719,188.575z M323.298,441.66l-2.107-10.65l132.954-26.309l2.107,10.65L323.298,441.66z
	 M489.826,370.481c-1.896,2.831-4.758,4.75-8.06,5.403l-12.45,2.463l-20.948-105.861l12.45-2.464
	c6.867-1.349,13.555,3.124,14.913,9.987l16.022,80.963C492.406,364.272,491.722,367.649,489.826,370.481z"/>
<path d="M364.371,223.112c0.802,0,1.619-0.097,2.433-0.301l0.461-0.115c5.358-1.339,8.616-6.769,7.276-12.127
	c-1.339-5.357-6.767-8.62-12.126-7.275l-0.461,0.115c-5.358,1.339-8.616,6.769-7.276,12.127
	C355.814,220.08,359.891,223.112,364.371,223.112z"/>
<path d="M249.898,137.913c-5.711-8.529-14.374-14.318-24.389-16.3l-23.303-4.612c-0.135-9.121-2.904-18.039-8.121-25.829
	c-7.12-10.632-17.915-17.848-30.396-20.316l-18.537-3.668c-12.483-2.472-25.211,0.09-35.843,7.209
	c-10.632,7.119-17.848,17.915-20.316,30.396l0,0c-0.001,0.004,0-0.003,0,0L67.51,213.334l-12.449-2.463
	c-8.541-1.693-17.25,0.059-24.52,4.928c-7.271,4.868-12.205,12.253-13.896,20.793L0.625,317.554
	c-3.499,17.683,8.041,34.916,25.724,38.416l12.449,2.463l-4.613,23.31c-1.072,5.418,2.451,10.679,7.869,11.751l152.574,30.192
	c0.644,0.128,1.294,0.19,1.941,0.19c1.967,0,3.906-0.58,5.564-1.69c2.204-1.476,3.731-3.767,4.246-6.368l49.301-249.147l0,0
	C257.662,156.656,255.608,146.442,249.898,137.913z M108.61,108.675c1.433-7.242,5.633-13.515,11.826-17.662
	c6.193-4.146,13.591-5.639,20.832-4.208l18.537,3.668c7.242,1.434,13.514,5.633,17.662,11.826
	c4.146,6.193,5.641,13.592,4.208,20.832c0,0.001,0,0.002,0,0.004l-4.09,20.674c-1.072,5.418,2.452,10.679,7.869,11.75
	c0.656,0.13,1.308,0.192,1.952,0.192c4.677,0,8.857-3.299,9.799-8.061l2.15-10.867l22.273,4.408
	c4.776,0.945,8.915,3.718,11.653,7.809c2.739,4.09,3.727,8.973,2.781,13.749l0,0l-15.976,80.737L87.13,217.216l8.534-43.122
	l83.766,16.576c0.656,0.13,1.309,0.192,1.952,0.192c4.677,0,8.856-3.299,9.799-8.061c1.072-5.418-2.451-10.679-7.868-11.751
	l-83.768-16.577L108.61,108.675z M30.233,336.352c-6.866-1.359-11.346-8.05-9.987-14.915l16.021-80.963
	c0.653-3.301,2.573-6.163,5.404-8.059c2.832-1.896,6.208-2.579,9.509-1.927l12.45,2.463L42.68,338.815L30.233,336.352z
	 M55.746,375.818l2.107-10.65l32.979,6.525c0.655,0.13,1.308,0.192,1.952,0.192c4.677,0,8.857-3.299,9.799-8.06
	c1.072-5.418-2.451-10.679-7.869-11.751l-32.978-6.525l21.512-108.715l132.954,26.31L194.69,371.859l-20.247-4.008
	c-5.419-1.075-10.679,2.45-11.751,7.868s2.45,10.679,7.868,11.751l20.247,4.008l-2.107,10.65L55.746,375.818z"/>
<path d="M123.703,357.81l-0.466-0.092c-5.42-1.065-10.677,2.46-11.745,7.878c-1.068,5.419,2.459,10.677,7.878,11.745l0.466,0.092
	c0.653,0.128,1.303,0.19,1.944,0.19c4.68,0,8.861-3.303,9.8-8.068C132.648,364.136,129.121,358.878,123.703,357.81z"/>
<path d="M214.844,94.899c1.317,4.307,5.278,7.078,9.56,7.078c0.969,0,1.954-0.143,2.928-0.44c5.281-1.615,8.253-7.206,6.638-12.487
	l-8.567-28.011c-1.616-5.281-7.206-8.251-12.488-6.638c-5.281,1.615-8.253,7.206-6.638,12.487L214.844,94.899z"/>
<path d="M302.058,108.724c1.496,0.795,3.102,1.172,4.685,1.172c3.58,0,7.042-1.927,8.839-5.309l13.748-25.862
	c2.592-4.876,0.74-10.931-4.136-13.523c-4.877-2.593-10.931-0.741-13.524,4.137l-13.748,25.862
	C295.329,100.077,297.181,106.131,302.058,108.724z"/>
<path d="M265.409,97.698c0.326,0.031,0.648,0.047,0.969,0.047c5.091,0,9.445-3.872,9.942-9.043l2.805-29.155
	c0.529-5.498-3.499-10.383-8.997-10.912c-5.497-0.532-10.383,3.5-10.912,8.996l-2.805,29.155
	C255.884,92.285,259.912,97.169,265.409,97.698z"/>
<g>
</g>
<g>
</g>
<g>
</g>
<g>
</g>
<g>
</g>
<g>
</g>
<g>
</g>
<g>
</g>
<g>
</g>
<g>
</g>
<g>
</g>
<g>
</g>
<g>
</g>
<g>
</g>
<g>
</g>
</svg>
